<?xml version="1.0" encoding="UTF-8" standalone="no"?>
<!-- Created with Inkscape (http://www.inkscape.org/) -->
<svg
   xmlns:dc="http://purl.org/dc/elements/1.1/"
   xmlns:cc="http://web.resource.org/cc/"
   xmlns:rdf="http://www.w3.org/1999/02/22-rdf-syntax-ns#"
   xmlns:svg="http://www.w3.org/2000/svg"
   xmlns="http://www.w3.org/2000/svg"
   xmlns:sodipodi="http://sodipodi.sourceforge.net/DTD/sodipodi-0.dtd"
   xmlns:inkscape="http://www.inkscape.org/namespaces/inkscape"
   width="368.1261"
   height="5.3301673"
   id="svg2"
   sodipodi:version="0.32"
   inkscape:version="0.45.1"
   sodipodi:docbase="/home/nedo/Desktop/drawing"
   sodipodi:docname="wokjab.new.message.bar.png.svg"
   inkscape:output_extension="org.inkscape.output.svg.inkscape"
   version="1.0">
  <defs
     id="defs4" />
  <sodipodi:namedview
     id="base"
     pagecolor="#ffffff"
     bordercolor="#666666"
     borderopacity="1.0"
     gridtolerance="10000"
     guidetolerance="10"
     objecttolerance="10"
     inkscape:pageopacity="0.0"
     inkscape:pageshadow="2"
     inkscape:zoom="2.0482112"
     inkscape:cx="4.5774162"
     inkscape:cy="1.9327408"
     inkscape:document-units="px"
     inkscape:current-layer="layer1"
     inkscape:window-width="822"
     inkscape:window-height="587"
     inkscape:window-x="558"
     inkscape:window-y="144" />
  <metadata
     id="metadata7">
    <rdf:RDF>
      <cc:Work
         rdf:about="">
        <dc:format>image/svg+xml</dc:format>
        <dc:type
           rdf:resource="http://purl.org/dc/dcmitype/StillImage" />
      </cc:Work>
    </rdf:RDF>
  </metadata>
  <g
     inkscape:label="Layer 1"
     inkscape:groupmode="layer"
     id="layer1"
     transform="translate(-142.36044,-526.50634)">
    <path
       style="fill:#000000"
       d="M 326.41668,527.17296 C 325.56204,527.17189 324.69349,527.25561 323.88543,527.41995 C 320.7714,528.05334 320.63663,529.45599 323.60418,530.38386 C 324.82655,530.76607 326.08018,531.07543 326.38543,531.07544 C 328.04985,531.07544 331.38542,529.55771 331.38543,528.80311 C 331.38543,527.86218 328.98059,527.17616 326.41668,527.17296 z M 326.38543,528.40793 C 327.49654,528.40793 328.38542,528.70278 328.38543,529.0748 C 328.38543,529.4468 327.49653,529.7417 326.38543,529.74168 C 325.27432,529.74168 324.38542,529.44679 324.38543,529.0748 C 324.38543,528.7028 325.27431,528.40793 326.38543,528.40793 z "
       id="path2178" />
    <g
       id="g2215"
       transform="matrix(1,0,0,0.7903755,3.774367e-6,110.32775)">
      <path
         id="path2194"
         d="M 192.99968,533.0983 C 184.82351,532.21684 186.97231,527.99933 195.58102,528.03182 C 200.08238,528.04881 200.15379,528.09308 196.901,528.85017 C 194.46389,529.4174 193.79247,530.05507 194.59613,531.03918 C 195.86815,532.5968 200.28833,532.54434 208.6097,530.87284 C 222.4196,528.09888 238.30036,527.48915 250.87788,529.24999 C 262.68197,530.90255 274.45897,531.56942 285.07017,531.18613 C 295.29679,530.81673 306.01029,529.52165 306.01029,528.65482 C 306.01029,528.40202 308.2845,527.84483 311.06409,527.41663 C 313.84368,526.98843 318.2444,526.67038 318.92759,526.56454 C 319.61077,526.45869 318.33597,527.66613 318.21077,528.98315 C 318.08556,530.30018 318.63718,531.35641 318.63718,531.35641 L 311.8623,531.12406 C 308.01714,530.9024 302.76067,531.12589 297.61557,531.72979 C 286.02389,533.09034 269.97442,532.64003 247.71981,530.32979 C 241.43442,529.67732 235.3593,529.14348 234.21953,529.14348 C 228.99293,529.14348 211.58957,531.05169 208.69073,531.94262 C 204.9221,533.10085 197.85291,533.62152 192.99968,533.0983 z "
         style="fill:#000000"
         sodipodi:nodetypes="cssssssssszccssssc" />
      <path
         id="path2190"
         d="M 145.66688,532.31089 C 140.7423,531.16198 141.55593,530.0164 146.53523,531.08828 C 153.10062,532.5016 165.65682,532.2293 171.10296,530.5555 C 178.73798,528.20897 180.29642,529.13701 172.86139,531.60264 C 169.06159,532.86274 166.82778,533.09432 158.61886,533.07918 C 153.2641,533.06929 147.43571,532.72357 145.66688,532.31089 z "
         style="fill:#000000" />
      <path
         id="path2188"
         d="M 177.36801,532.56566 C 177.36801,532.27335 178.19499,531.8771 179.20576,531.68511 C 180.21652,531.49312 181.0435,531.73229 181.0435,532.21659 C 181.0435,532.70089 180.21652,533.09714 179.20576,533.09714 C 178.19499,533.09714 177.36801,532.85797 177.36801,532.56566 z "
         style="fill:#000000" />
      <path
         id="path2182"
         d="M 230.66267,531.68511 C 230.66267,531.21915 231.90315,530.8379 233.41929,530.8379 C 234.93543,530.8379 236.17591,531.21915 236.17591,531.68511 C 236.17591,532.15108 234.93543,532.53233 233.41929,532.53233 C 231.90315,532.53233 230.66267,532.15108 230.66267,531.68511 z "
         style="fill:#000000" />
      <path
         id="path2174"
         d="M 285.04057,529.28813 C 284.45374,529.10777 287.40102,528.4886 291.59008,527.91219 C 298.86219,526.91155 303.1002,526.92987 299.45565,527.94619 C 296.84772,528.67344 286.25045,529.65996 285.04057,529.28813 z "
         style="fill:#000000" />
    </g>
    <g
       id="g2208"
       transform="matrix(1,0,0,0.7903755,3.8674894e-5,110.32885)">
      <path
         id="path2198"
         d="M 459.84726,533.0969 C 468.02343,532.21544 465.87463,527.99793 457.26592,528.03042 C 452.76456,528.04741 452.69315,528.09168 455.94594,528.84877 C 458.38305,529.416 459.05447,530.05367 458.25081,531.03778 C 456.97879,532.5954 452.55861,532.54294 444.23724,530.87144 C 430.42734,528.09748 414.54658,527.48775 401.96906,529.24859 C 390.16497,530.90115 378.38797,531.56802 367.77677,531.18473 C 357.55015,530.81533 346.83665,529.52025 346.83665,528.65342 C 346.83665,528.40062 344.56244,527.84343 341.78285,527.41523 C 339.00326,526.98703 335.21592,526.78789 334.53273,526.68205 C 333.84955,526.5762 335.19251,527.76877 335.24956,529.10066 C 335.30661,530.43254 334.27791,531.59281 334.27791,531.59281 L 340.98464,531.12266 C 344.8298,530.901 350.08627,531.12449 355.23137,531.72839 C 366.82305,533.08894 382.87252,532.63863 405.12713,530.32839 C 411.41252,529.67592 417.48764,529.14208 418.62741,529.14208 C 423.85401,529.14208 441.25737,531.05029 444.15621,531.94122 C 447.92484,533.09945 454.99403,533.62012 459.84726,533.0969 z "
         style="fill:#000000"
         sodipodi:nodetypes="cssssssssszccssssc" />
      <path
         id="path2200"
         d="M 507.18006,532.30949 C 512.10464,531.16058 511.29101,530.015 506.31171,531.08688 C 499.74632,532.5002 487.19012,532.2279 481.74398,530.5541 C 474.10896,528.20757 472.55052,529.13561 479.98555,531.60124 C 483.78535,532.86134 486.01916,533.09292 494.22808,533.07778 C 499.58284,533.06789 505.41123,532.72217 507.18006,532.30949 z "
         style="fill:#000000" />
      <path
         id="path2202"
         d="M 475.47893,532.56426 C 475.47893,532.27195 474.65195,531.8757 473.64118,531.68371 C 472.63042,531.49172 471.80344,531.73089 471.80344,532.21519 C 471.80344,532.69949 472.63042,533.09574 473.64118,533.09574 C 474.65195,533.09574 475.47893,532.85657 475.47893,532.56426 z "
         style="fill:#000000" />
      <path
         id="path2204"
         d="M 422.18427,531.68371 C 422.18427,531.21775 420.94379,530.8365 419.42765,530.8365 C 417.91151,530.8365 416.67103,531.21775 416.67103,531.68371 C 416.67103,532.14968 417.91151,532.53093 419.42765,532.53093 C 420.94379,532.53093 422.18427,532.14968 422.18427,531.68371 z "
         style="fill:#000000" />
      <path
         id="path2206"
         d="M 367.80637,529.28673 C 368.3932,529.10637 365.44592,528.4872 361.25686,527.91079 C 353.98475,526.91015 349.74674,526.92847 353.39129,527.94479 C 355.99922,528.67204 366.59649,529.65856 367.80637,529.28673 z "
         style="fill:#000000" />
    </g>
  </g>
</svg>
